# xmcd CD database file
# Generated: Thu Sep 11 15:40:14 2003 by KSCD
# 
# Track frame offsets:
#       150
#       13867
#       31095
#       40655
#       53040
#       64080
#       78167
#       89580
#       103962
#       115482
#       129172
#       143012
#       155567
#       170117
#
# Disc length: 2476 seconds
#
# Revision: 3
# Processed by: cddbd v1.4PL0 Copyright (c) Steve Scherf et al.
# Submitted via: Kscd 1.3.3
#
DISCID=b709aa0e
DTITLE=Croce - Photographs and Memories
DYEAR=1900
DGENRE=
TTITLE0=bad bad leroy brown
TTITLE1=
TTITLE2=
TTITLE3=
TTITLE4=
TTITLE5=
TTITLE6=
TTITLE7=
TTITLE8=
TTITLE9=
TTITLE10=
TTITLE11=
TTITLE12=
TTITLE13=
EXTD=
EXTT0=
EXTT1=
EXTT2=
EXTT3=
EXTT4=
EXTT5=
EXTT6=
EXTT7=
EXTT8=
EXTT9=
EXTT10=
EXTT11=
EXTT12=
EXTT13=
PLAYORDER=
